<?xml version="1.0" encoding="UTF-8" standalone="no" ?>
<!DOCTYPE svg PUBLIC "-//W3C//DTD SVG 1.1//EN" "http://www.w3.org/Graphics/SVG/1.1/DTD/svg11.dtd">
<svg xmlns="http://www.w3.org/2000/svg" xmlns:xlink="http://www.w3.org/1999/xlink" version="1.1" width="1440" height="3200" viewBox="0 0 1440 3200" xml:space="preserve">
<desc>Created with Fabric.js 5.3.0</desc>
<defs>
</defs>
<g transform="matrix(0.9938357041 0 0 0.9938357041 718.5123871192 1601.4876128808)" id="S52DlxFbSW9oSBEVuT7qm"  >
<path style="stroke: rgb(37,237,228); stroke-width: 0; stroke-dasharray: none; stroke-linecap: butt; stroke-dashoffset: 0; stroke-linejoin: miter; stroke-miterlimit: 4; fill: rgb(21,113,119); fill-rule: nonzero; opacity: 1;"  transform=" translate(0, 0)" d="M 0 -241.3273 C 133.21267 -241.3273 241.3273 -133.21267 241.3273 0 C 241.3273 133.21267 133.21267 241.3273 0 241.3273 C -133.21267 241.3273 -241.3273 133.21267 -241.3273 0 C -241.3273 -133.21267 -133.21267 -241.3273 0 -241.3273 z" stroke-linecap="round" />
</g>
<g transform="matrix(1.1484087536 0 0 1.1484087536 718.5123871192 1601.4876128808)" id="Ix33N3MPC6atfCIHcLkfo"  >
<path style="stroke: rgb(55,97,217); stroke-width: 0; stroke-dasharray: none; stroke-linecap: butt; stroke-dashoffset: 0; stroke-linejoin: miter; stroke-miterlimit: 4; fill: rgb(221,247,247); fill-rule: nonzero; opacity: 1;"  transform=" translate(0, 0)" d="M 0 -197.88839 C 109.23439 -197.88839 197.88839 -109.23438999999999 197.88839 0 C 197.88839 109.23439 109.23438999999999 197.88839 0 197.88839 C -109.23439 197.88839 -197.88839 109.23438999999999 -197.88839 0 C -197.88839 -109.23439 -109.23438999999999 -197.88839 0 -197.88839 z" stroke-linecap="round" />
</g>
</svg>