<?xml version="1.0" encoding="UTF-8" standalone="no" ?>
<!DOCTYPE svg PUBLIC "-//W3C//DTD SVG 1.1//EN" "http://www.w3.org/Graphics/SVG/1.1/DTD/svg11.dtd">
<svg xmlns="http://www.w3.org/2000/svg" xmlns:xlink="http://www.w3.org/1999/xlink" version="1.1" width="640" height="640" viewBox="0 0 640 640" xml:space="preserve">
<desc>Created with Fabric.js 5.3.0</desc>
<defs>
</defs>
<g transform="matrix(2.5521463894 0 0 2.5521463894 320 331.1016279437)" id="if9uc4DxB1kTITqRxtRr5"  >
<path style="stroke: rgb(171,141,115); stroke-width: 0; stroke-dasharray: none; stroke-linecap: butt; stroke-dashoffset: 0; stroke-linejoin: miter; stroke-miterlimit: 4; fill: rgb(124,223,229); fill-rule: nonzero; opacity: 1;"  transform=" translate(0, 0)" d="M -111.11111 -83.48531 C -111.11111 -90.81213 -108.20053999999999 -97.83886 -103.0197 -103.0197 C -97.83886 -108.20054 -90.81213 -111.11111 -83.48531 -111.11111 L 84.54253 -111.11111 L 84.54253 -111.11111 C 91.58896 -111.11111 98.34678 -108.31192999999999 103.32935 -103.32934999999999 C 108.31193 -98.34676999999999 111.11111000000001 -91.58895 111.11111000000001 -84.54253 L 111.11111000000001 87.81794 L 111.11111000000001 87.81794 C 111.11111000000001 100.68239999999999 100.68240000000002 111.11111 87.81794000000001 111.11111 L -83.85829 111.11111 L -83.85829 111.11111 C -98.9096 111.11111 -111.1111 98.90961 -111.1111 83.8583 z" stroke-linecap="round" />
</g>
</svg>